<svg width="42" height="43" viewBox="0 0 42 43" fill="none" xmlns="http://www.w3.org/2000/svg">
<g clip-path="url(#clip0_625_2021)">
<path d="M31.5 32C37.299 26.201 37.299 16.799 31.5 11C25.701 5.20101 16.299 5.20101 10.5 11C4.70101 16.799 4.70101 26.201 10.5 32C16.299 37.799 25.701 37.799 31.5 32Z" fill="#866AFA"/>
<path fill-rule="evenodd" clip-rule="evenodd" d="M16.7455 12.2861H25.252C27.9864 12.2861 30.2335 14.5331 30.2335 17.2676V25.7325C30.2335 28.4669 27.9864 30.7139 25.252 30.7139H16.7455C14.011 30.7139 11.764 28.4669 11.764 25.7325V17.2676C11.764 14.5331 14.011 12.2861 16.7455 12.2861ZM25.9594 15.5051C26.533 15.5051 27.0175 15.9895 27.0175 16.5632C27.0175 17.1368 26.533 17.6213 25.9594 17.6213C25.3412 17.6213 24.9013 17.1368 24.9013 16.5632C24.9013 15.9895 25.3412 15.5051 25.9594 15.5051ZM20.9779 16.474H21.0225C23.757 16.474 26.0486 18.7656 26.0486 21.5C26.0486 24.2761 23.757 26.5261 21.0225 26.5261H20.9779C18.2435 26.5261 15.9965 24.2791 15.9965 21.5C15.9965 18.7656 18.2435 16.474 20.9779 16.474ZM20.9779 18.1919H21.0225C22.8296 18.1919 24.3276 19.6899 24.3276 21.4971C24.3276 23.3488 22.8296 24.8468 21.0225 24.8468H20.9779C19.1708 24.8468 17.6728 23.3488 17.6728 21.4971C17.6728 19.6899 19.1708 18.1919 20.9779 18.1919ZM16.7901 13.8733H25.2104C27.1067 13.8733 28.6493 15.4159 28.6493 17.3122V25.6879C28.6493 27.5842 27.1067 29.1268 25.2104 29.1268H16.7901C14.8938 29.1268 13.3512 27.5842 13.3512 25.6879V17.3122C13.3512 15.4159 14.8938 13.8733 16.7901 13.8733Z" fill="white"/>
</g>
<defs>
<clipPath id="clip0_625_2021">
<rect width="42" height="42" fill="white" transform="translate(0 0.5)"/>
</clipPath>
</defs>
</svg>
