<svg width="304" height="63" viewBox="0 0 304 63" fill="none" xmlns="http://www.w3.org/2000/svg">
<g clip-path="url(#clip0_625_1991)">
<path d="M44.2829 32.5079L31.5134 11.3477L18.7438 32.5079L31.5134 53.6747L44.2829 32.5079Z" fill="url(#paint0_linear_625_1991)"/>
<path d="M31.5134 53.6747V11.3477L44.2829 32.5079L31.5134 53.6747Z" fill="url(#paint1_linear_625_1991)"/>
<path d="M42.0801 32.5079L31.5134 27.5149L20.9399 32.5079L31.5134 37.5076L42.0801 32.5079Z" fill="#6F4FF2"/>
<path d="M37.3474 32.5078L31.5134 29.751L25.6726 32.5078L31.5134 35.2713L37.3474 32.5078Z" fill="url(#paint2_linear_625_1991)"/>
<path d="M63 31.5001C63 48.8955 48.8954 63.0001 31.5 63.0001C24.451 63.0001 17.9428 60.6838 12.6894 56.7722C8.24378 53.4613 4.71263 48.9957 2.51651 43.8291L4.59248 41.5395L5.6872 40.3313C9.35853 51.065 19.5181 58.7881 31.5 58.7881C44.5098 58.7881 55.3836 49.6832 58.1205 37.5011L53.1475 32.4747L59.7625 26.407L62.1456 24.2175C62.6996 26.5538 63 28.9903 63 31.5001Z" fill="url(#paint3_linear_625_1991)"/>
<path d="M61.3379 21.4072L59.0817 23.5099L57.9002 24.6113C54.8496 12.8764 44.1894 4.20534 31.5 4.20534C17.7625 4.20534 6.40145 14.3582 4.49904 27.5617L9.8525 32.4746L4.87952 37.501C4.87952 37.501 4.87952 37.5143 4.87952 37.521L3.69135 38.7292L1.45517 41.0054C0.507303 38.0016 -0.00668335 34.8109 -0.00668335 31.5C-8.20635e-06 14.0979 14.1046 0 31.5 0C34.0432 0 36.513 0.300381 38.876 0.874444C49.4228 3.39765 57.9002 11.2409 61.3379 21.4072Z" fill="url(#paint4_linear_625_1991)"/>
<path d="M4.88621 37.5209L3.69803 38.7291C3.10395 36.4195 2.78354 33.9964 2.78354 31.4999C2.78354 15.6398 15.6399 2.78345 31.5 2.78345C44.5833 2.78345 55.624 11.5346 59.0817 23.5098L57.9002 24.6112C54.8497 12.8763 44.1894 4.20525 31.5 4.20525C17.7626 4.20525 6.40147 14.3581 4.49905 27.5616L9.85252 32.4745L4.87953 37.5009C4.87953 37.5009 4.87953 37.5142 4.87953 37.5209H4.88621Z" fill="url(#paint5_linear_625_1991)"/>
<path d="M60.2098 31.5001C60.2098 47.3536 47.3535 60.2099 31.5 60.2099C19.171 60.2099 8.65766 52.44 4.5925 41.5395L5.68722 40.3313C9.35855 51.065 19.5181 58.7881 31.5 58.7881C44.5099 58.7881 55.3837 49.6832 58.1205 37.5011L53.1475 32.4747L59.7626 26.407C60.0563 28.0624 60.2098 29.7646 60.2098 31.5001Z" fill="url(#paint6_linear_625_1991)"/>
<path d="M16.8946 32.5163L14.4024 30.0242L11.9102 32.5163L14.4024 35.0085L16.8946 32.5163Z" fill="url(#paint7_linear_625_1991)"/>
<path d="M51.2225 32.5139L48.7303 30.0217L46.2382 32.5139L48.7303 35.0061L51.2225 32.5139Z" fill="url(#paint8_linear_625_1991)"/>
<g clip-path="url(#clip1_625_1991)">
<path d="M44.2829 32.5079L31.5134 11.3477L18.7438 32.5079L31.5134 53.6747L44.2829 32.5079Z" fill="url(#paint9_linear_625_1991)"/>
<path d="M31.5134 53.6747V11.3477L44.2829 32.5079L31.5134 53.6747Z" fill="url(#paint10_linear_625_1991)"/>
<path d="M42.0801 32.5079L31.5134 27.5149L20.9399 32.5079L31.5134 37.5076L42.0801 32.5079Z" fill="#6F4FF2"/>
<path d="M37.3474 32.5078L31.5134 29.751L25.6726 32.5078L31.5134 35.2713L37.3474 32.5078Z" fill="url(#paint11_linear_625_1991)"/>
<path d="M63 31.5001C63 48.8955 48.8954 63.0001 31.5 63.0001C24.451 63.0001 17.9428 60.6838 12.6894 56.7722C8.24378 53.4613 4.71263 48.9957 2.51651 43.8291L4.59248 41.5395L5.6872 40.3313C9.35853 51.065 19.5181 58.7881 31.5 58.7881C44.5098 58.7881 55.3836 49.6832 58.1205 37.5011L53.1475 32.4747L59.7625 26.407L62.1456 24.2175C62.6996 26.5538 63 28.9903 63 31.5001Z" fill="url(#paint12_linear_625_1991)"/>
<path d="M61.3379 21.4072L59.0817 23.5099L57.9002 24.6113C54.8496 12.8764 44.1894 4.20534 31.5 4.20534C17.7625 4.20534 6.40145 14.3582 4.49904 27.5617L9.8525 32.4746L4.87952 37.501C4.87952 37.501 4.87952 37.5143 4.87952 37.521L3.69135 38.7292L1.45517 41.0054C0.507303 38.0016 -0.00668335 34.8109 -0.00668335 31.5C-8.20635e-06 14.0979 14.1046 0 31.5 0C34.0432 0 36.513 0.300381 38.876 0.874444C49.4228 3.39765 57.9002 11.2409 61.3379 21.4072Z" fill="url(#paint13_linear_625_1991)"/>
<path d="M4.88621 37.5209L3.69803 38.7291C3.10395 36.4195 2.78354 33.9964 2.78354 31.4999C2.78354 15.6398 15.6399 2.78345 31.5 2.78345C44.5833 2.78345 55.624 11.5346 59.0817 23.5098L57.9002 24.6112C54.8497 12.8763 44.1894 4.20525 31.5 4.20525C17.7626 4.20525 6.40147 14.3581 4.49905 27.5616L9.85252 32.4745L4.87953 37.5009C4.87953 37.5009 4.87953 37.5142 4.87953 37.5209H4.88621Z" fill="url(#paint14_linear_625_1991)"/>
<path d="M60.2098 31.5001C60.2098 47.3536 47.3535 60.2099 31.5 60.2099C19.171 60.2099 8.65766 52.44 4.5925 41.5395L5.68722 40.3313C9.35855 51.065 19.5181 58.7881 31.5 58.7881C44.5099 58.7881 55.3837 49.6832 58.1205 37.5011L53.1475 32.4747L59.7626 26.407C60.0563 28.0624 60.2098 29.7646 60.2098 31.5001Z" fill="url(#paint15_linear_625_1991)"/>
<path d="M16.8946 32.5163L14.4024 30.0242L11.9102 32.5163L14.4024 35.0085L16.8946 32.5163Z" fill="url(#paint16_linear_625_1991)"/>
<path d="M51.2225 32.5139L48.7303 30.0217L46.2382 32.5139L48.7303 35.0061L51.2225 32.5139Z" fill="url(#paint17_linear_625_1991)"/>
</g>
</g>
<path d="M107.873 20.6364V41H104.154L95.2947 28.1832H95.1456V41H90.8402V20.6364H94.6186L103.408 33.4432H103.587V20.6364H107.873ZM111.43 41V20.6364H124.913V24.1861H115.735V29.0384H124.018V32.5881H115.735V41H111.43ZM127.033 24.1861V20.6364H143.758V24.1861H137.523V41H133.268V24.1861H127.033ZM152.993 41V20.6364H157.298V37.4503H166.028V41H152.993ZM175.7 41.2983C174.156 41.2983 172.82 40.9702 171.693 40.3139C170.573 39.651 169.708 38.7296 169.098 37.5497C168.488 36.3632 168.183 34.9877 168.183 33.4233C168.183 31.8456 168.488 30.4669 169.098 29.2869C169.708 28.1004 170.573 27.179 171.693 26.5227C172.82 25.8598 174.156 25.5284 175.7 25.5284C177.245 25.5284 178.577 25.8598 179.697 26.5227C180.824 27.179 181.693 28.1004 182.303 29.2869C182.912 30.4669 183.217 31.8456 183.217 33.4233C183.217 34.9877 182.912 36.3632 182.303 37.5497C181.693 38.7296 180.824 39.651 179.697 40.3139C178.577 40.9702 177.245 41.2983 175.7 41.2983ZM175.72 38.017C176.423 38.017 177.009 37.8182 177.48 37.4205C177.951 37.0161 178.305 36.4659 178.544 35.7699C178.789 35.0739 178.912 34.2817 178.912 33.3935C178.912 32.5052 178.789 31.7131 178.544 31.017C178.305 30.321 177.951 29.7708 177.48 29.3665C177.009 28.9621 176.423 28.7599 175.72 28.7599C175.011 28.7599 174.414 28.9621 173.93 29.3665C173.453 29.7708 173.092 30.321 172.847 31.017C172.608 31.7131 172.489 32.5052 172.489 33.3935C172.489 34.2817 172.608 35.0739 172.847 35.7699C173.092 36.4659 173.453 37.0161 173.93 37.4205C174.414 37.8182 175.011 38.017 175.72 38.017ZM192.852 47.0455C191.48 47.0455 190.304 46.8565 189.322 46.4787C188.348 46.1075 187.572 45.6004 186.996 44.9574C186.419 44.3144 186.045 43.5919 185.872 42.7898L189.79 42.2628C189.909 42.5677 190.098 42.8527 190.357 43.1179C190.615 43.383 190.956 43.5952 191.381 43.7543C191.812 43.92 192.335 44.0028 192.952 44.0028C193.873 44.0028 194.632 43.7775 195.229 43.3267C195.832 42.8826 196.134 42.1368 196.134 41.0895V38.2955H195.955C195.769 38.7197 195.491 39.1207 195.119 39.4986C194.748 39.8764 194.271 40.1847 193.688 40.4233C193.104 40.6619 192.408 40.7812 191.599 40.7812C190.453 40.7812 189.409 40.5161 188.467 39.9858C187.533 39.4489 186.787 38.6302 186.23 37.5298C185.68 36.4228 185.405 35.0241 185.405 33.3338C185.405 31.6037 185.687 30.1586 186.25 28.9986C186.813 27.8385 187.563 26.9702 188.497 26.3935C189.438 25.8168 190.469 25.5284 191.589 25.5284C192.445 25.5284 193.161 25.6742 193.737 25.9659C194.314 26.2509 194.778 26.6089 195.129 27.0398C195.487 27.464 195.762 27.8816 195.955 28.2926H196.114V25.7273H200.32V41.1491C200.32 42.4484 200.001 43.5355 199.365 44.4105C198.729 45.2855 197.847 45.9418 196.72 46.3793C195.6 46.8234 194.311 47.0455 192.852 47.0455ZM192.942 37.5994C193.625 37.5994 194.201 37.4304 194.672 37.0923C195.149 36.7476 195.514 36.2571 195.766 35.6207C196.024 34.9777 196.153 34.2088 196.153 33.3139C196.153 32.419 196.027 31.6435 195.776 30.9872C195.524 30.3243 195.159 29.8106 194.682 29.446C194.205 29.0814 193.625 28.8991 192.942 28.8991C192.246 28.8991 191.659 29.0881 191.182 29.4659C190.705 29.8371 190.343 30.3542 190.098 31.017C189.853 31.6799 189.73 32.4455 189.73 33.3139C189.73 34.1955 189.853 34.9579 190.098 35.6009C190.35 36.2372 190.711 36.7311 191.182 37.0824C191.659 37.4271 192.246 37.5994 192.942 37.5994ZM210.591 41.2983C209.046 41.2983 207.711 40.9702 206.584 40.3139C205.464 39.651 204.598 38.7296 203.989 37.5497C203.379 36.3632 203.074 34.9877 203.074 33.4233C203.074 31.8456 203.379 30.4669 203.989 29.2869C204.598 28.1004 205.464 27.179 206.584 26.5227C207.711 25.8598 209.046 25.5284 210.591 25.5284C212.135 25.5284 213.468 25.8598 214.588 26.5227C215.715 27.179 216.583 28.1004 217.193 29.2869C217.803 30.4669 218.108 31.8456 218.108 33.4233C218.108 34.9877 217.803 36.3632 217.193 37.5497C216.583 38.7296 215.715 39.651 214.588 40.3139C213.468 40.9702 212.135 41.2983 210.591 41.2983ZM210.611 38.017C211.313 38.017 211.9 37.8182 212.371 37.4205C212.841 37.0161 213.196 36.4659 213.435 35.7699C213.68 35.0739 213.803 34.2817 213.803 33.3935C213.803 32.5052 213.68 31.7131 213.435 31.017C213.196 30.321 212.841 29.7708 212.371 29.3665C211.9 28.9621 211.313 28.7599 210.611 28.7599C209.902 28.7599 209.305 28.9621 208.821 29.3665C208.344 29.7708 207.982 30.321 207.737 31.017C207.499 31.7131 207.379 32.5052 207.379 33.3935C207.379 34.2817 207.499 35.0739 207.737 35.7699C207.982 36.4659 208.344 37.0161 208.821 37.4205C209.305 37.8182 209.902 38.017 210.611 38.017ZM220.862 46.7273V25.7273H225.038V28.2926H225.227C225.413 27.8816 225.681 27.464 226.033 27.0398C226.391 26.6089 226.855 26.2509 227.425 25.9659C228.001 25.6742 228.717 25.5284 229.572 25.5284C230.686 25.5284 231.714 25.8201 232.655 26.4034C233.596 26.9801 234.348 27.8518 234.912 29.0185C235.475 30.1785 235.757 31.6335 235.757 33.3835C235.757 35.0871 235.482 36.5256 234.932 37.6989C234.388 38.8655 233.646 39.7505 232.705 40.3537C231.77 40.9503 230.723 41.2486 229.562 41.2486C228.741 41.2486 228.041 41.1127 227.464 40.8409C226.894 40.5691 226.427 40.2277 226.062 39.8168C225.698 39.3991 225.42 38.9782 225.227 38.554H225.098V46.7273H220.862ZM225.009 33.3636C225.009 34.2718 225.134 35.0639 225.386 35.7401C225.638 36.4162 226.003 36.9432 226.48 37.321C226.957 37.6922 227.537 37.8778 228.22 37.8778C228.91 37.8778 229.493 37.6889 229.97 37.3111C230.447 36.9266 230.809 36.3963 231.054 35.7202C231.306 35.0374 231.432 34.2519 231.432 33.3636C231.432 32.482 231.309 31.7064 231.064 31.0369C230.819 30.3674 230.457 29.8437 229.98 29.4659C229.503 29.0881 228.916 28.8991 228.22 28.8991C227.531 28.8991 226.947 29.0814 226.47 29.446C226 29.8106 225.638 30.3277 225.386 30.9972C225.134 31.6667 225.009 32.4555 225.009 33.3636ZM242.817 20.6364V41H238.581V20.6364H242.817ZM250.565 41.2884C249.591 41.2884 248.722 41.1193 247.96 40.7812C247.198 40.4366 246.594 39.9295 246.15 39.2599C245.713 38.5838 245.494 37.742 245.494 36.7344C245.494 35.8859 245.65 35.1733 245.961 34.5966C246.273 34.0199 246.697 33.5559 247.234 33.2045C247.771 32.8532 248.381 32.5881 249.064 32.4091C249.753 32.2301 250.475 32.1042 251.231 32.0312C252.119 31.9384 252.835 31.8523 253.379 31.7727C253.922 31.6866 254.317 31.5606 254.562 31.3949C254.807 31.2292 254.93 30.9839 254.93 30.6591V30.5994C254.93 29.9697 254.731 29.4825 254.333 29.1378C253.942 28.7931 253.386 28.6207 252.663 28.6207C251.901 28.6207 251.294 28.7898 250.843 29.1278C250.393 29.4593 250.094 29.8769 249.949 30.3807L246.031 30.0625C246.23 29.1345 246.621 28.3324 247.204 27.6562C247.788 26.9735 248.54 26.4498 249.461 26.0852C250.389 25.714 251.463 25.5284 252.683 25.5284C253.531 25.5284 254.343 25.6278 255.119 25.8267C255.901 26.0256 256.594 26.3338 257.197 26.7514C257.807 27.169 258.288 27.706 258.639 28.3622C258.99 29.0118 259.166 29.7907 259.166 30.6989V41H255.149V38.8821H255.029C254.784 39.3594 254.456 39.7803 254.045 40.1449C253.634 40.5028 253.14 40.7846 252.564 40.9901C251.987 41.1889 251.321 41.2884 250.565 41.2884ZM251.778 38.3651C252.401 38.3651 252.951 38.2424 253.429 37.9972C253.906 37.7453 254.28 37.4072 254.552 36.983C254.824 36.5587 254.96 36.0781 254.96 35.5412V33.9205C254.827 34.0066 254.645 34.0862 254.413 34.1591C254.188 34.2254 253.932 34.2884 253.647 34.348C253.362 34.401 253.077 34.4508 252.792 34.4972C252.507 34.5369 252.249 34.5734 252.017 34.6065C251.52 34.6795 251.085 34.7955 250.714 34.9545C250.343 35.1136 250.055 35.3291 249.849 35.6009C249.644 35.866 249.541 36.1974 249.541 36.5952C249.541 37.1719 249.75 37.6127 250.167 37.9176C250.592 38.2159 251.128 38.3651 251.778 38.3651ZM269.353 41.2983C267.788 41.2983 266.443 40.9669 265.316 40.304C264.195 39.6345 263.334 38.7064 262.73 37.5199C262.134 36.3333 261.836 34.9678 261.836 33.4233C261.836 31.8589 262.137 30.4867 262.74 29.3068C263.35 28.1203 264.215 27.1955 265.336 26.5327C266.456 25.8632 267.788 25.5284 269.333 25.5284C270.665 25.5284 271.832 25.7704 272.833 26.2543C273.834 26.7382 274.626 27.4176 275.209 28.2926C275.792 29.1676 276.114 30.1951 276.174 31.375H272.176C272.064 30.6127 271.766 29.9995 271.282 29.5355C270.804 29.0649 270.178 28.8295 269.402 28.8295C268.746 28.8295 268.173 29.0085 267.682 29.3665C267.198 29.7178 266.82 30.2315 266.549 30.9077C266.277 31.5838 266.141 32.4025 266.141 33.3636C266.141 34.3381 266.274 35.1667 266.539 35.8494C266.81 36.5322 267.192 37.0526 267.682 37.4105C268.173 37.7685 268.746 37.9474 269.402 37.9474C269.886 37.9474 270.32 37.848 270.705 37.6491C271.096 37.4503 271.417 37.1619 271.669 36.7841C271.928 36.3996 272.097 35.9389 272.176 35.402H276.174C276.107 36.5687 275.789 37.5961 275.219 38.4844C274.656 39.366 273.877 40.0554 272.882 40.5526C271.888 41.0497 270.712 41.2983 269.353 41.2983ZM285.846 41.2983C284.275 41.2983 282.923 40.9801 281.789 40.3438C280.662 39.7008 279.794 38.7926 279.184 37.6193C278.574 36.4394 278.269 35.044 278.269 33.4332C278.269 31.8622 278.574 30.4834 279.184 29.2969C279.794 28.1103 280.652 27.1856 281.759 26.5227C282.873 25.8598 284.179 25.5284 285.677 25.5284C286.684 25.5284 287.622 25.6908 288.491 26.0156C289.366 26.3338 290.128 26.8144 290.778 27.4574C291.434 28.1004 291.944 28.9091 292.309 29.8835C292.674 30.8513 292.856 31.9848 292.856 33.2841V34.4474H279.96V31.8224H288.869C288.869 31.2126 288.736 30.6723 288.471 30.2017C288.206 29.7311 287.838 29.3632 287.367 29.098C286.903 28.8262 286.363 28.6903 285.746 28.6903C285.103 28.6903 284.533 28.8395 284.036 29.1378C283.546 29.4295 283.161 29.8239 282.883 30.321C282.604 30.8116 282.462 31.3584 282.455 31.9616V34.4574C282.455 35.2131 282.594 35.866 282.873 36.4162C283.158 36.9664 283.559 37.3906 284.076 37.6889C284.593 37.9872 285.206 38.1364 285.915 38.1364C286.386 38.1364 286.817 38.0701 287.208 37.9375C287.599 37.8049 287.934 37.6061 288.212 37.3409C288.491 37.0758 288.703 36.7509 288.849 36.3665L292.766 36.625C292.567 37.5663 292.16 38.3883 291.543 39.0909C290.933 39.7869 290.145 40.3305 289.177 40.7216C288.216 41.1061 287.105 41.2983 285.846 41.2983Z" fill="#866AFA"/>
<defs>
<linearGradient id="paint0_linear_625_1991" x1="29.0302" y1="38.7157" x2="37.2073" y2="18.2698" gradientUnits="userSpaceOnUse">
<stop stop-color="#B63AE4"/>
<stop offset="1" stop-color="#23E0FF"/>
</linearGradient>
<linearGradient id="paint1_linear_625_1991" x1="41.2524" y1="32.5079" x2="27.7219" y2="32.5079" gradientUnits="userSpaceOnUse">
<stop stop-color="#FFE496" stop-opacity="0"/>
<stop offset="0.94" stop-color="#EFEC53"/>
</linearGradient>
<linearGradient id="paint2_linear_625_1991" x1="25.6726" y1="32.5078" x2="37.3474" y2="32.5078" gradientUnits="userSpaceOnUse">
<stop stop-color="#B63AE4"/>
<stop offset="1" stop-color="#23E0FF"/>
</linearGradient>
<linearGradient id="paint3_linear_625_1991" x1="32.7549" y1="-31.5466" x2="32.7549" y2="131.707" gradientUnits="userSpaceOnUse">
<stop stop-color="#EB3C9C"/>
<stop offset="1" stop-color="#FFCD35"/>
</linearGradient>
<linearGradient id="paint4_linear_625_1991" x1="30.6656" y1="-58.9615" x2="30.6656" y2="113.651" gradientUnits="userSpaceOnUse">
<stop stop-color="#EB3C9C"/>
<stop offset="1" stop-color="#FFCD35"/>
</linearGradient>
<linearGradient id="paint5_linear_625_1991" x1="47.487" y1="10.9271" x2="6.41482" y2="30.0047" gradientUnits="userSpaceOnUse">
<stop stop-color="#FFE496" stop-opacity="0"/>
<stop offset="0.94" stop-color="#EFEC53"/>
</linearGradient>
<linearGradient id="paint6_linear_625_1991" x1="15.6933" y1="53.6616" x2="55.3102" y2="32.8351" gradientUnits="userSpaceOnUse">
<stop stop-color="#FFE496" stop-opacity="0"/>
<stop offset="0.94" stop-color="#EFEC53"/>
</linearGradient>
<linearGradient id="paint7_linear_625_1991" x1="14.4065" y1="34.9444" x2="14.4065" y2="30.432" gradientUnits="userSpaceOnUse">
<stop stop-color="#B63AE4"/>
<stop offset="1" stop-color="#23E0FF"/>
</linearGradient>
<linearGradient id="paint8_linear_625_1991" x1="48.7359" y1="34.9467" x2="48.7359" y2="30.4343" gradientUnits="userSpaceOnUse">
<stop stop-color="#B63AE4"/>
<stop offset="1" stop-color="#23E0FF"/>
</linearGradient>
<linearGradient id="paint9_linear_625_1991" x1="29.0302" y1="38.7157" x2="37.2073" y2="18.2698" gradientUnits="userSpaceOnUse">
<stop stop-color="#B63AE4"/>
<stop offset="1" stop-color="#23E0FF"/>
</linearGradient>
<linearGradient id="paint10_linear_625_1991" x1="41.2524" y1="32.5079" x2="27.7219" y2="32.5079" gradientUnits="userSpaceOnUse">
<stop stop-color="#FFE496" stop-opacity="0"/>
<stop offset="0.94" stop-color="#EFEC53"/>
</linearGradient>
<linearGradient id="paint11_linear_625_1991" x1="25.6726" y1="32.5078" x2="37.3474" y2="32.5078" gradientUnits="userSpaceOnUse">
<stop stop-color="#B63AE4"/>
<stop offset="1" stop-color="#23E0FF"/>
</linearGradient>
<linearGradient id="paint12_linear_625_1991" x1="32.7549" y1="-31.5466" x2="32.7549" y2="131.707" gradientUnits="userSpaceOnUse">
<stop stop-color="#EB3C9C"/>
<stop offset="1" stop-color="#FFCD35"/>
</linearGradient>
<linearGradient id="paint13_linear_625_1991" x1="30.6656" y1="-58.9615" x2="30.6656" y2="113.651" gradientUnits="userSpaceOnUse">
<stop stop-color="#EB3C9C"/>
<stop offset="1" stop-color="#FFCD35"/>
</linearGradient>
<linearGradient id="paint14_linear_625_1991" x1="47.487" y1="10.9271" x2="6.41482" y2="30.0047" gradientUnits="userSpaceOnUse">
<stop stop-color="#FFE496" stop-opacity="0"/>
<stop offset="0.94" stop-color="#EFEC53"/>
</linearGradient>
<linearGradient id="paint15_linear_625_1991" x1="15.6933" y1="53.6616" x2="55.3102" y2="32.8351" gradientUnits="userSpaceOnUse">
<stop stop-color="#FFE496" stop-opacity="0"/>
<stop offset="0.94" stop-color="#EFEC53"/>
</linearGradient>
<linearGradient id="paint16_linear_625_1991" x1="14.4065" y1="34.9444" x2="14.4065" y2="30.432" gradientUnits="userSpaceOnUse">
<stop stop-color="#B63AE4"/>
<stop offset="1" stop-color="#23E0FF"/>
</linearGradient>
<linearGradient id="paint17_linear_625_1991" x1="48.7359" y1="34.9467" x2="48.7359" y2="30.4343" gradientUnits="userSpaceOnUse">
<stop stop-color="#B63AE4"/>
<stop offset="1" stop-color="#23E0FF"/>
</linearGradient>
<clipPath id="clip0_625_1991">
<rect width="63" height="63" fill="white"/>
</clipPath>
<clipPath id="clip1_625_1991">
<rect width="63" height="63" fill="white"/>
</clipPath>
</defs>
</svg>
