<svg width="42" height="43" viewBox="0 0 42 43" fill="none" xmlns="http://www.w3.org/2000/svg">
<g clip-path="url(#clip0_625_2025)">
<path d="M31.5 32C37.299 26.201 37.299 16.799 31.5 11C25.701 5.20101 16.299 5.20101 10.5 11C4.70101 16.799 4.70101 26.201 10.5 32C16.299 37.799 25.701 37.799 31.5 32Z" fill="#866AFA"/>
<path fill-rule="evenodd" clip-rule="evenodd" d="M20.8656 18.4225C20.0689 14.2926 25.1112 11.8369 28.0822 14.8157C28.0822 14.8157 29.41 14.4495 30.5751 13.7171C30.5751 13.7171 30.1502 15.1297 28.7195 16.0158C28.7195 16.0158 30.3129 15.8065 31 15.388C31 15.388 30.3095 16.8006 29.0382 17.3205C29.7286 26.7803 19.3817 32.5288 11 27.8267C11 27.8267 15.1394 28.036 16.8888 26.0511C16.8888 26.0511 14.3427 26.2604 13.068 23.2292C13.068 23.2292 14.0241 23.5954 14.9768 23.1246C14.9768 23.1246 12.0058 22.6537 11.7402 19.1516C11.7402 19.1516 12.6963 19.8841 13.7552 19.6225C13.7552 19.6225 10.4656 17.69 12.3212 14.1879C12.3212 14.1879 15.8232 18.5794 20.8622 18.4225H20.8656Z" fill="white"/>
</g>
<defs>
<clipPath id="clip0_625_2025">
<rect width="42" height="42" fill="white" transform="translate(0 0.5)"/>
</clipPath>
</defs>
</svg>
