<svg width="42" height="43" viewBox="0 0 42 43" fill="none" xmlns="http://www.w3.org/2000/svg">
<g clip-path="url(#clip0_625_2034)">
<path d="M31.5 32C37.299 26.201 37.299 16.799 31.5 11C25.701 5.20101 16.299 5.20101 10.5 11C4.70101 16.799 4.70101 26.201 10.5 32C16.299 37.799 25.701 37.799 31.5 32Z" fill="#866AFA"/>
<path fill-rule="evenodd" clip-rule="evenodd" d="M27.9387 14.5H14.8946C12.6935 14.5 11 16.2044 11 18.4197V25.5803C11 27.7956 12.6935 29.5 14.8946 29.5H27.9349C30.136 29.5 32 27.7956 32 25.5803V18.4197C32 16.2044 30.136 14.5 27.9349 14.5H27.9387ZM24.8889 22L19.3007 18.7628V25.241L24.8889 22.0038V22Z" fill="white"/>
</g>
<defs>
<clipPath id="clip0_625_2034">
<rect width="42" height="42" fill="white" transform="translate(0 0.5)"/>
</clipPath>
</defs>
</svg>
